<?xml version="1.0" encoding="UTF-8" standalone="no"?>
<!DOCTYPE svg PUBLIC "-//W3C//DTD SVG 1.1//EN" "http://www.w3.org/Graphics/SVG/1.1/DTD/svg11.dtd">
<svg version="1.1" xmlns="http://www.w3.org/2000/svg" xmlns:xlink="http://www.w3.org/1999/xlink" preserveAspectRatio="xMidYMid meet" viewBox="0 0 2 2" width="2" height="2"><defs><path d="M1.34 1.26C1.32 1.24 1.31 1.23 1.31 1.23C1.42 1.09 1.49 0.92 1.49 0.74C1.49 0.33 1.15 0 0.74 0C0.33 0 0 0.33 0 0.74C0 1.15 0.33 1.49 0.74 1.49C0.93 1.49 1.1 1.42 1.23 1.31C1.23 1.31 1.24 1.32 1.26 1.34L1.26 1.43L1.83 2L2 1.83L1.43 1.26L1.34 1.26ZM0.23 0.74C0.23 0.46 0.46 0.23 0.74 0.23C1.03 0.23 1.26 0.46 1.26 0.74C1.26 1.03 1.03 1.26 0.74 1.26C0.46 1.26 0.23 1.03 0.23 0.74Z" id="l5uiJyjTF0"></path></defs><g><g><g><use xlink:href="#l5uiJyjTF0" opacity="1" fill="#000000" fill-opacity="1"></use><g><use xlink:href="#l5uiJyjTF0" opacity="1" fill-opacity="0" stroke="#000000" stroke-width="1" stroke-opacity="0"></use></g></g></g></g></svg>